# xmcd CD database file
#
# Track frame offsets:
#	150
#	10196
#	22817
#	36430
#	53808
#	60241
#	74963
#	84444
#	96126
#	107079
#	122581
#	132593
#	144887
#	157319
#	169857
#	180497
#	193968
#	202404
#	221017
#	233162
#
# Disc length: 3260 seconds
#
# Revision: 3
# Processed by: cddbd v1.5.2PL0 Copyright (c) Steve Scherf et al.
# Submitted via: CDex 1.70beta2
#
DISCID=280cba14
DTITLE=Country Hits - Country Hits CD04
DYEAR=1900
DGENRE=Country
TTITLE0=Carl Perkins - Blue Suede Shoes
TTITLE1=Dolly Parton - Little Blossom
TTITLE2=Johnny Paycheck - I Feel Like Crying
TTITLE3=Ferlin Husky - Convoy
TTITLE4=Jim Reeves - I'm Beginning To Forget You
TTITLE5=Kenny Rogers - Heed The Call
TTITLE6=Burl Ives - Galisteo
TTITLE7=Waylon Jennings - Crying
TTITLE8=Patsy Cline - I Cried All The Way To The Alter
TTITLE9=Jimmy Dean - Let Me Sing My Song
TTITLE10=Johnny Cash - Good Bye Little Darlin'
TTITLE11=Bill Monroe - No Letter In The Mail
TTITLE12=David Frizzell - Lost My Baby Blues
TTITLE13=Mickey Gilley - Don't The Girls All Get Prettier
TTITLE14=Patsy Cline - I Don't Wanna
TTITLE15=Kenny Rogers - I'm Gonna Sing You A Sad Song
TTITLE16=Lee Greenwood - Ring On Her Finger
TTITLE17=Merle Haggard - Foot Lights
TTITLE18=Johnny Paycheck - I'll Follow You Up To Our Cloud
TTITLE19=Carl Perkins - Born To Boogie
EXTD=
EXTT0=
EXTT1=
EXTT2=
EXTT3=
EXTT4=
EXTT5=
EXTT6=
EXTT7=
EXTT8=
EXTT9=
EXTT10=
EXTT11=
EXTT12=
EXTT13=
EXTT14=
EXTT15=
EXTT16=
EXTT17=
EXTT18=
EXTT19=
PLAYORDER=
